<?xml version="1.0" standalone="no"?>
<!DOCTYPE svg PUBLIC "-//W3C//DTD SVG 20010904//EN"
 "http://www.w3.org/TR/2001/REC-SVG-20010904/DTD/svg10.dtd">
<svg version="1.0" xmlns="http://www.w3.org/2000/svg"
 width="1024.000000pt" height="1024.000000pt" viewBox="0 0 1024.000000 1024.000000"
 preserveAspectRatio="xMidYMid meet">
<metadata>
Created by potrace 1.14, written by Peter Selinger 2001-2017
</metadata>
<g transform="translate(0.000000,1024.000000) scale(0.100000,-0.100000)"
fill="#000000" stroke="none">
<path d="M4640 8064 c-492 -48 -847 -157 -1185 -361 -266 -161 -459 -360 -573
-588 -87 -176 -180 -457 -213 -645 -30 -166 -36 -445 -15 -620 23 -189 70
-411 115 -551 l39 -118 -39 -26 c-49 -32 -93 -92 -116 -158 -14 -39 -18 -80
-17 -167 1 -128 21 -199 85 -306 102 -169 335 -298 506 -281 l51 5 37 -86
c144 -340 329 -583 561 -738 169 -112 474 -238 683 -280 l88 -18 7 -133 c4
-74 4 -138 2 -142 -3 -5 -26 -11 -51 -14 -111 -16 -322 -109 -430 -190 -151
-113 -295 -277 -242 -277 6 0 56 32 110 70 257 186 387 257 538 297 l64 16 55
-36 c120 -79 316 -118 491 -97 140 16 256 56 337 117 l33 25 62 -30 c137 -64
395 -241 482 -331 40 -42 74 -52 94 -27 22 26 -86 147 -224 252 -92 69 -275
178 -336 200 l-49 18 0 123 c0 68 -1 126 -2 130 -2 3 42 14 97 23 236 41 371
94 635 250 293 173 448 363 549 670 l31 95 84 2 c271 8 525 208 591 468 21 82
19 225 -3 306 -31 112 -110 223 -187 265 -23 12 -34 24 -31 34 2 8 21 60 41
115 112 304 166 609 151 860 -9 153 -41 365 -76 498 -79 309 -185 497 -410
731 -226 234 -470 391 -745 479 -130 42 -434 119 -555 141 -249 46 -812 61
-1120 30z m781 -84 c222 -18 393 -47 609 -104 233 -62 350 -101 465 -156 90
-43 247 -146 347 -227 136 -110 308 -310 391 -452 145 -248 243 -735 216
-1074 -16 -205 -72 -436 -160 -667 -30 -79 -31 -80 -65 -80 -38 0 -80 -18
-133 -58 l-33 -25 6 49 c11 86 26 326 26 423 l0 94 -127 131 c-71 72 -187 197
-259 276 -151 167 -159 174 -179 166 -20 -7 -21 -6 142 -298 79 -142 143 -260
143 -263 0 -12 -281 -4 -374 11 -268 43 -539 176 -737 362 -45 42 -140 143
-212 224 -71 82 -133 148 -138 148 -25 0 -12 -45 81 -276 112 -278 196 -455
263 -556 l45 -68 -53 0 c-78 0 -277 28 -370 51 -195 50 -415 147 -574 253
-114 76 -267 211 -369 324 -70 78 -93 94 -107 72 -8 -13 125 -353 184 -470 82
-162 186 -317 280 -417 36 -40 27 -41 -73 -8 -234 76 -486 265 -653 489 -64
86 -135 199 -274 440 -64 111 -72 85 -39 -127 31 -199 68 -374 100 -467 16
-46 27 -86 25 -88 -9 -9 -108 75 -152 128 -99 120 -204 342 -263 555 -31 113
-39 130 -58 133 -22 3 -22 1 -22 -105 1 -233 35 -510 81 -666 11 -38 19 -70
17 -72 -12 -11 -137 22 -207 56 -77 36 -86 38 -100 24 -19 -19 -29 -130 -30
-342 -1 -79 -3 -143 -6 -143 -3 0 -18 8 -32 17 -18 12 -46 18 -85 18 l-58 0
-20 50 c-94 231 -158 632 -147 915 16 393 157 824 355 1085 225 296 688 552
1177 650 325 65 806 92 1156 65z m344 -2072 c136 -103 345 -203 520 -247 129
-32 224 -41 434 -41 243 0 251 4 190 102 -16 28 -29 52 -27 53 2 2 29 -21 61
-51 l57 -53 0 -73 c0 -289 -69 -881 -146 -1256 -30 -149 -98 -360 -144 -452
-107 -215 -294 -376 -633 -546 -235 -119 -487 -164 -910 -164 -334 0 -545 31
-796 116 -396 134 -615 293 -804 584 -178 276 -348 774 -388 1141 -11 97 -8
513 3 524 3 3 27 -5 54 -17 40 -18 72 -23 171 -26 108 -4 124 -2 129 13 4 9
-7 58 -25 108 -29 86 -71 254 -71 287 0 8 19 -21 41 -65 52 -102 139 -217 204
-268 59 -48 201 -117 241 -118 24 -1 21 -3 -16 -13 -147 -41 -305 -191 -270
-256 20 -36 53 -24 108 39 96 110 197 147 375 138 108 -6 108 -6 119 19 10 21
8 28 -8 44 -26 27 -123 43 -205 35 -66 -7 -67 -7 -62 17 2 13 -11 56 -31 101
-35 76 -116 323 -116 353 0 9 27 -24 59 -73 160 -238 360 -412 615 -534 123
-59 221 -85 349 -95 87 -6 96 -5 105 12 9 16 -2 32 -68 102 -173 182 -269 319
-355 507 l-35 78 42 -37 c77 -65 243 -171 359 -228 264 -131 530 -194 836
-200 114 -3 134 -1 149 14 17 16 14 23 -48 115 -36 54 -86 134 -110 178 -47
84 -138 275 -138 290 0 4 28 -19 63 -51 34 -33 89 -80 122 -106z m-2741 -809
c20 -17 40 -28 45 -25 9 6 14 -20 26 -134 4 -42 3 -51 -5 -37 -29 46 -122 61
-176 28 -43 -26 -58 -74 -52 -170 5 -83 31 -154 59 -159 25 -4 52 27 44 52
-40 140 -41 187 -4 206 14 8 27 6 48 -5 40 -20 68 -19 83 4 10 17 15 5 34 -87
26 -124 86 -344 108 -396 19 -45 9 -52 -62 -43 -73 9 -141 35 -214 84 -125 82
-194 186 -225 339 -28 137 4 261 80 318 84 61 160 71 211 25z m4309 2 c93 -60
155 -179 164 -316 10 -152 -40 -280 -151 -390 -106 -104 -239 -165 -366 -165
l-55 0 31 159 c17 87 43 252 58 367 38 293 34 274 58 274 12 0 45 23 74 50 47
44 58 50 96 50 32 0 57 -8 91 -29z m-2183 -2007 l345 -4 1 -112 c1 -156 2
-156 -87 -200 -149 -75 -375 -90 -544 -35 -44 15 -88 32 -97 39 -13 11 -17 42
-21 172 l-5 158 31 -7 c18 -4 187 -9 377 -11z"/>
<path d="M6094 5460 c-101 -15 -194 -58 -194 -90 0 -16 31 -40 52 -40 11 0 51
10 90 21 55 17 87 20 151 17 123 -8 187 -36 270 -119 68 -70 84 -78 105 -57
30 30 6 94 -57 151 -99 89 -276 139 -417 117z"/>
<path d="M3932 5310 c-75 -27 -110 -51 -176 -119 -71 -75 -110 -158 -131 -275
-19 -113 -19 -207 1 -304 19 -92 38 -132 63 -132 39 0 44 23 27 121 -27 159
-13 319 38 424 38 76 186 213 161 148 -39 -102 -50 -173 -50 -323 0 -144 2
-161 28 -235 39 -110 85 -177 139 -204 86 -41 190 -16 250 59 15 20 42 76 60
125 58 165 49 389 -23 555 -25 57 -100 133 -162 160 -55 26 -155 26 -225 0z
m308 -195 c20 -25 8 -50 -25 -50 -31 0 -43 20 -31 51 7 18 40 18 56 -1z"/>
<path d="M6055 5307 c-133 -63 -211 -242 -208 -477 1 -122 19 -203 69 -308 45
-94 98 -132 183 -132 107 0 177 66 225 210 64 195 55 394 -28 583 -13 28 8 20
63 -23 63 -50 97 -103 129 -200 21 -63 25 -94 25 -195 0 -75 -7 -149 -17 -198
-18 -83 -16 -97 14 -97 23 0 50 48 76 135 24 81 25 264 1 355 -42 158 -123
262 -256 328 -63 31 -87 37 -150 40 -63 2 -84 -1 -126 -21z"/>
<path d="M5157 4479 c-28 -16 -24 -109 6 -137 27 -25 50 -28 66 -8 9 11 8 28
-5 76 -19 65 -38 85 -67 69z"/>
<path d="M4007 4244 c-15 -15 -7 -45 11 -42 9 2 17 12 17 22 0 20 -16 31 -28
20z"/>
<path d="M6003 4234 c-9 -23 13 -40 32 -24 12 10 13 16 4 26 -15 18 -28 18
-36 -2z"/>
<path d="M6167 4237 c-3 -8 -2 -20 3 -27 11 -18 42 -4 38 17 -4 22 -34 29 -41
10z"/>
<path d="M4155 4230 c-4 -7 -3 -16 3 -22 14 -14 45 -2 40 15 -6 16 -34 21 -43
7z"/>
<path d="M6187 4104 c-16 -16 -7 -44 14 -44 15 0 20 5 17 22 -3 22 -19 33 -31
22z"/>
<path d="M3980 4079 c0 -14 5 -19 17 -17 26 5 29 38 4 38 -15 0 -21 -6 -21
-21z"/>
<path d="M4140 4080 c0 -13 7 -20 20 -20 13 0 20 7 20 20 0 13 -7 20 -20 20
-13 0 -20 -7 -20 -20z"/>
<path d="M6012 4083 c4 -22 43 -25 43 -3 0 8 -11 16 -23 18 -19 3 -23 0 -20
-15z"/>
<path d="M5398 3881 c-21 -15 -66 -41 -100 -57 -89 -40 -225 -46 -329 -14
-121 36 -119 -10 4 -66 57 -27 71 -29 182 -29 115 0 123 1 188 32 119 56 175
114 147 148 -19 23 -51 17 -92 -14z"/>
<path d="M7182 4930 c-40 -25 -85 -116 -86 -175 -1 -35 2 -40 23 -43 31 -5 41
7 71 81 31 77 50 80 68 12 23 -89 -4 -216 -69 -316 -17 -27 -29 -56 -25 -64
17 -45 97 18 147 117 103 203 12 476 -129 388z"/>
</g>
</svg>
